PathFileType	4	(x/y/z)	TRC_MarkerData\Passive\Passive_Pref0005.trc
DataRate	CameraRate	NumFrames	NumMarkers	Units	OrigDataRate	OrigDataStartFrame	OrigNumFrames
240	240	11	50	mm	240	235	313
Frame#	Time	R_AC			L_AC			HEAD			STERN			C7			L_IC			R_IC			L_ASIS			R_ASIS			L_GT			R_GT			L_PSIS			R_PSIS			SACRAL			L_LAT_KNEE			L_MED_KNEE			R_LAT_KNEE			R_MED_KNEE			L_LAT_ANK			L_MED_ANK			R_LAT_ANK			R_MED_ANK			L_THIGH_PROX_POST			L_THIGH_PROX_ANT			L_THIGH_DIST_ANT			L_THIGH_DIST_POST			R_THIGH_PROX_POST			R_THIGH_PROX_ANT			R_THIGH_DIST_ANT			R_THIGH_DIST_POST			L_SHANK_PROX_POST			L_SHANK_PROX_ANT			L_SHANK_DIST_ANT			L_SHANK_DIST_POST			R_SHANK_PROX_POST			R_SHANK_PROX_ANT			R_SHANK_DIST_ANT			R_SHANK_DIST_POST			L_HEEL_LAT			L_HEEL_SUP			L_HEEL_MED			R_HEEL_LAT			R_HEEL_SUP			R_HEEL_MED			L_1ST_MET			L_5TH_MET			L_TOE			R_1ST_MET			R_5TH_MET			R_TOE			
		X1	Y1	Z1	X2	Y2	Z2	X3	Y3	Z3	X4	Y4	Z4	X5	Y5	Z5	X6	Y6	Z6	X7	Y7	Z7	X8	Y8	Z8	X9	Y9	Z9	X10	Y10	Z10	X11	Y11	Z11	X12	Y12	Z12	X13	Y13	Z13	X14	Y14	Z14	X15	Y15	Z15	X16	Y16	Z16	X17	Y17	Z17	X18	Y18	Z18	X19	Y19	Z19	X20	Y20	Z20	X21	Y21	Z21	X22	Y22	Z22	X23	Y23	Z23	X24	Y24	Z24	X25	Y25	Z25	X26	Y26	Z26	X27	Y27	Z27	X28	Y28	Z28	X29	Y29	Z29	X30	Y30	Z30	X31	Y31	Z31	X32	Y32	Z32	X33	Y33	Z33	X34	Y34	Z34	X35	Y35	Z35	X36	Y36	Z36	X37	Y37	Z37	X38	Y38	Z38	X39	Y39	Z39	X40	Y40	Z40	X41	Y41	Z41	X42	Y42	Z42	X43	Y43	Z43	X44	Y44	Z44	X45	Y45	Z45	X46	Y46	Z46	X47	Y47	Z47	X48	Y48	Z48	X49	Y49	Z49	X50	Y50	Z50	

235	0.97813	361.7	1532.8	472.28	311.84	1555.2	67.374	368.98	1865	286.32	408.64	1510.1	265.86	274.46	1583.4	274.98	NaN	NaN	NaN	336.72	1106.8	437.93	369.63	1056	135.82	393.54	1058.2	400.94	286.53	967.79	83.951	317.18	974.06	449.92	181.23	1052	225.65	182.9	1051.3	334.06	173.68	1016.7	278.98	421.04	565.72	73.825	431.66	574.41	212	356.77	552.34	391.58	350.58	556.7	259.97	62.783	266.56	98.876	58.016	269.33	187.59	273.73	91.291	318.83	313.48	122.92	224.51	340.47	790.85	79.142	397.91	806.81	80.429	422.84	738.26	83.316	364.14	720.23	77.455	319.33	784.56	439.07	387.45	793.36	437.95	390.47	718.02	424.53	320.5	712.32	422.05	332.86	512.1	93.913	379.15	468.97	99.863	344.33	432.74	107.98	303.22	473.4	92.36	301.48	365.64	387.11	367.57	369.08	371.53	360.62	296.72	353.95	292.81	293.34	367.61	-28.889	244.58	102.61	-23.464	275.01	134.09	-34.719	251.41	169.11	204.59	46.698	287.53	204.23	78.576	254.66	224.89	51.71	225.15	135.84	109.44	209.08	123.61	118.41	98.671	183.23	89.497	179.51	437.25	50.577	241.28	412.8	38.36	349.46	482.25	51.849	284.77
236	0.98231	366.45	1533.6	472.09	316.34	1555.7	67.2	373.82	1865.6	285.97	413.38	1510.7	265.69	279.21	1584	274.81	NaN	NaN	NaN	341.41	1107.4	438.02	374.73	1056.9	136.13	398.07	1058.6	401.27	292.13	968.77	83.848	321.2	974.47	449.9	186.14	1052.6	225.45	187.56	1051.9	333.85	178.54	1017.3	278.76	430.23	567.77	73.754	440.07	576.46	212.01	357.88	552.57	391.74	352.2	556.86	260.03	76.044	263.68	96.604	70.795	266.22	185.26	274.06	91.57	318.72	313.85	123.23	224.49	347.89	791.94	78.721	404.89	808.73	80.514	430.39	740.42	83.484	372.18	721.83	77.24	321.97	785.11	439.08	390.25	793.43	438.17	392.73	718.06	424.72	322.74	712.87	422.07	342.72	512.93	93.338	389.57	470.42	99.469	355.2	433.72	107.38	313.63	473.82	91.575	302.09	366.02	387.08	368.18	369.31	371.69	361.15	296.97	354.1	293.31	293.74	367.58	-15.323	240.41	99.82	-10.49	270.88	131.35	-21.591	247.07	166.32	204.74	47.277	287.46	204.41	79.13	254.58	225.03	52.207	225.1	150.69	107.47	207.01	138.91	116.37	96.581	198.48	88.208	177.68	437.44	50.484	241.33	412.91	38.268	349.5	482.45	51.52	284.85
237	0.98649	371.19	1534.3	471.9	320.87	1556.3	67.025	378.66	1866.2	285.63	418.13	1511.3	265.53	283.96	1584.6	274.63	NaN	NaN	NaN	346.07	1108	438.11	379.82	1057.8	136.42	402.57	1058.9	401.6	297.71	969.72	83.746	325.21	974.86	449.87	191.03	1053.2	225.23	192.21	1052.5	333.63	183.37	1017.9	278.51	439.33	569.8	73.755	448.37	578.49	212.09	358.98	552.81	391.89	353.81	557.04	260.1	89.446	260.68	94.363	83.699	262.97	182.97	274.4	91.854	318.6	314.24	123.54	224.48	355.18	793.02	78.344	411.8	810.59	80.624	437.85	742.54	83.701	380.1	723.38	77.061	324.6	785.67	439.1	393.01	793.5	438.39	394.98	718.11	424.9	324.96	713.42	422.09	352.53	513.69	92.818	399.95	471.84	99.149	366.06	434.66	106.86	324.02	474.19	90.847	302.69	366.41	387.05	368.78	369.55	371.84	361.67	297.24	354.25	293.81	294.16	367.56	-1.583	236.07	97.046	2.6364	266.57	128.63	-8.3038	242.55	163.53	204.9	47.879	287.39	204.61	79.71	254.5	225.17	52.733	225.05	165.73	105.43	205.02	154.41	114.26	94.565	213.91	86.881	175.94	437.63	50.398	241.37	413.03	38.181	349.53	482.66	51.199	284.94
238	0.99067	375.91	1535	471.71	325.41	1556.8	66.851	383.5	1866.7	285.29	422.88	1511.8	265.36	288.71	1585.1	274.45	NaN	NaN	NaN	350.71	1108.6	438.17	384.9	1058.6	136.7	407.04	1059.2	401.91	303.27	970.63	83.646	329.19	975.26	449.83	195.91	1053.7	224.99	196.84	1053.1	333.4	188.19	1018.4	278.25	448.34	571.8	73.828	456.54	580.5	212.23	360.07	553.06	392.04	355.41	557.22	260.16	102.99	257.55	92.157	96.729	259.59	180.7	274.76	92.143	318.47	314.63	123.88	224.48	362.34	794.07	78.013	418.62	812.4	80.759	445.21	744.59	83.966	387.86	724.9	76.915	327.22	786.25	439.1	395.75	793.59	438.59	397.21	718.17	425.07	327.18	713.99	422.09	362.3	514.4	92.353	410.31	473.24	98.905	376.91	435.58	106.41	334.4	474.49	90.176	303.28	366.82	387.02	369.38	369.81	372	362.18	297.52	354.39	294.31	294.59	367.53	12.334	231.57	94.29	15.917	262.09	125.92	5.1456	237.86	160.76	205.05	48.505	287.33	204.83	80.317	254.42	225.31	53.29	224.99	180.94	103.33	203.1	170.11	112.09	92.627	229.53	85.525	174.3	437.83	50.319	241.42	413.14	38.099	349.57	482.86	50.886	285.02
239	0.99485	380.63	1535.6	471.52	329.98	1557.2	66.675	388.34	1867.2	284.95	427.63	1512.4	265.2	293.47	1585.7	274.26	NaN	NaN	NaN	355.35	1109.2	438.23	389.95	1059.4	136.97	411.5	1059.6	402.21	308.81	971.5	83.547	333.14	975.64	449.78	200.77	1054.3	224.73	201.46	1053.6	333.15	192.97	1019	277.97	457.25	573.78	73.972	464.58	582.47	212.44	361.15	553.33	392.19	357.01	557.41	260.23	116.68	254.31	89.993	109.88	256.08	178.46	275.13	92.436	318.34	315.03	124.22	224.49	369.36	795.1	77.727	425.37	814.14	80.918	452.47	746.59	84.276	395.45	726.37	76.799	329.82	786.83	439.1	398.47	793.68	438.78	399.44	718.25	425.23	329.39	714.56	422.1	372.02	515.06	91.943	420.62	474.61	98.737	387.75	436.46	106.04	344.75	474.73	89.563	303.88	367.25	387	369.98	370.08	372.16	362.69	297.81	354.54	294.82	295.03	367.51	26.428	226.91	91.561	29.354	257.45	123.23	18.76	233.01	158	205.21	49.153	287.28	205.07	80.95	254.35	225.46	53.877	224.93	196.32	101.19	201.28	186.01	109.87	90.774	245.32	84.15	172.76	438.02	50.247	241.46	413.26	38.022	349.6	483.05	50.583	285.1
240	0.99903	385.34	1536.2	471.33	334.58	1557.7	66.499	393.18	1867.7	284.61	432.38	1512.9	265.05	298.23	1586.1	274.07	NaN	NaN	NaN	359.96	1109.7	438.27	394.99	1060.2	137.23	415.94	1059.9	402.49	314.32	972.33	83.451	337.08	976.02	449.71	205.6	1054.8	224.46	206.07	1054.2	332.88	197.74	1019.5	277.66	466.07	575.72	74.185	472.5	584.42	212.71	362.23	553.6	392.33	358.61	557.6	260.31	130.5	250.96	87.876	123.17	252.47	176.27	275.5	92.733	318.2	315.44	124.58	224.5	376.23	796.11	77.486	432.04	815.83	81.102	459.63	748.52	84.63	402.84	727.79	76.71	332.42	787.41	439.1	401.17	793.78	438.97	401.65	718.33	425.39	331.59	715.14	422.09	381.7	515.65	91.59	430.89	475.96	98.645	398.57	437.31	105.75	355.08	474.92	89.009	304.47	367.69	386.98	370.58	370.37	372.33	363.2	298.12	354.69	295.32	295.49	367.5	40.699	222.12	88.865	42.949	252.67	120.57	32.541	228.01	155.28	205.37	49.822	287.23	205.34	81.609	254.29	225.61	54.493	224.88	211.86	99.017	199.54	202.09	107.6	89.009	261.27	82.765	171.33	438.21	50.184	241.51	413.37	37.949	349.63	483.24	50.288	285.18
241	1.0032	390.04	1536.8	471.13	339.2	1558.1	66.32	398.03	1868.1	284.29	437.14	1513.3	264.89	302.99	1586.6	273.88	NaN	NaN	NaN	364.57	1110.2	438.29	400.02	1060.9	137.48	420.36	1060.2	402.76	319.81	973.12	83.356	341	976.4	449.64	210.42	1055.3	224.17	210.66	1054.7	332.59	202.47	1020	277.34	474.79	577.63	74.465	480.29	586.32	213.04	363.31	553.89	392.48	360.21	557.81	260.39	144.47	247.52	85.813	136.57	248.75	174.12	275.89	93.034	318.06	315.85	124.96	224.53	382.97	797.09	77.291	438.63	817.46	81.311	466.7	750.38	85.026	409.99	729.15	76.643	335.01	788.01	439.09	403.85	793.89	439.15	403.85	718.43	425.55	333.79	715.72	422.09	391.33	516.19	91.291	441.11	477.27	98.628	409.36	438.13	105.53	365.39	475.04	88.513	305.07	368.14	386.98	371.19	370.67	372.5	363.7	298.44	354.83	295.83	295.96	367.49	55.148	217.2	86.211	56.702	247.74	117.96	46.49	222.88	152.58	205.53	50.51	287.18	205.62	82.291	254.23	225.77	55.137	224.82	227.57	96.816	197.89	218.36	105.31	87.338	277.39	81.378	170	438.4	50.13	241.56	413.48	37.879	349.67	483.43	50.004	285.26
242	1.0074	394.74	1537.3	470.94	343.85	1558.5	66.14	402.88	1868.6	283.96	441.89	1513.7	264.74	307.76	1587.1	273.68	NaN	NaN	NaN	369.18	1110.7	438.31	405.04	1061.5	137.71	424.76	1060.4	403.02	325.27	973.86	83.264	344.91	976.77	449.55	215.23	1055.8	223.86	215.25	1055.2	332.29	207.19	1020.5	277	483.41	579.49	74.808	487.95	588.18	213.43	364.39	554.19	392.62	361.8	558.02	260.48	158.57	243.99	83.808	150.11	244.94	172.03	276.29	93.341	317.92	316.27	125.35	224.57	389.56	798.04	77.142	445.14	819.02	81.545	473.66	752.15	85.462	416.86	730.44	76.594	337.6	788.61	439.08	406.51	794.01	439.33	406.04	718.54	425.7	335.99	716.32	422.08	400.91	516.67	91.049	451.28	478.57	98.686	420.14	438.92	105.38	375.67	475.11	88.076	305.66	368.6	386.98	371.8	370.98	372.68	364.21	298.77	354.99	296.33	296.44	367.5	69.773	212.16	83.609	70.615	242.69	115.39	60.61	217.61	149.94	205.69	51.215	287.15	205.93	82.997	254.19	225.94	55.809	224.76	243.43	94.6	196.35	234.81	103	85.763	293.66	80.001	168.78	438.59	50.085	241.62	413.59	37.813	349.7	483.61	49.728	285.34
243	1.0116	399.44	1537.8	470.75	348.52	1558.9	65.957	407.73	1869	283.64	446.65	1514.1	264.58	312.53	1587.5	273.49	NaN	NaN	NaN	373.78	1111.2	438.3	410.05	1062.2	137.94	429.14	1060.7	403.27	330.71	974.55	83.173	348.8	977.13	449.46	220.01	1056.2	223.53	219.82	1055.7	331.98	211.88	1021	276.65	491.92	581.32	75.211	495.49	589.98	213.87	365.48	554.5	392.76	363.39	558.25	260.58	172.81	240.38	81.869	163.76	241.04	169.99	276.69	93.654	317.78	316.7	125.75	224.62	396.01	798.95	77.037	451.57	820.52	81.804	480.52	753.85	85.935	423.41	731.66	76.56	340.19	789.22	439.06	409.17	794.14	439.49	408.24	718.66	425.84	338.19	716.92	422.07	410.44	517.09	90.861	461.39	479.84	98.815	430.89	439.68	105.31	385.92	475.12	87.7	306.26	369.07	386.99	372.42	371.3	372.86	364.71	299.12	355.14	296.84	296.93	367.51	84.573	207.02	81.067	84.686	237.53	112.87	74.9	212.24	147.34	205.85	51.936	287.12	206.26	83.724	254.16	226.12	56.507	224.71	259.44	92.377	194.9	251.42	100.68	84.287	310.09	78.642	167.67	438.78	50.049	241.68	413.7	37.748	349.73	483.79	49.462	285.42
244	1.0157	404.13	1538.3	470.56	353.22	1559.2	65.772	412.58	1869.3	283.33	451.41	1514.5	264.43	317.3	1587.9	273.29	NaN	NaN	NaN	378.38	1111.6	438.29	415.05	1062.7	138.15	433.5	1061	403.5	336.14	975.2	83.083	352.67	977.49	449.35	224.79	1056.6	223.19	224.39	1056.1	331.64	216.54	1021.4	276.27	500.32	583.1	75.669	502.89	591.73	214.36	366.57	554.82	392.9	364.98	558.48	260.69	187.18	236.7	80.001	177.54	237.08	168.02	277.09	93.975	317.65	317.12	126.17	224.68	402.33	799.84	76.977	457.93	821.95	82.086	487.29	755.46	86.443	429.6	732.8	76.535	342.79	789.82	439.04	411.81	794.27	439.66	410.43	718.79	425.99	340.4	717.52	422.06	419.9	517.45	90.729	471.45	481.08	99.013	441.6	440.42	105.3	396.14	475.07	87.383	306.86	369.56	387.01	373.05	371.63	373.06	365.22	299.47	355.31	297.36	297.43	367.53	99.546	201.79	78.595	98.916	232.26	110.43	89.361	206.76	144.81	206.02	52.67	287.09	206.61	84.469	254.14	226.31	57.228	224.66	275.6	90.157	193.56	268.2	98.364	82.914	326.66	77.313	166.67	438.97	50.023	241.74	413.82	37.686	349.77	483.97	49.204	285.5
245	1.0199	408.83	1538.7	470.36	357.94	1559.5	65.583	417.44	1869.7	283.01	456.17	1514.8	264.27	322.09	1588.3	273.09	NaN	NaN	NaN	382.98	1112	438.26	420.05	1063.3	138.35	437.86	1061.2	403.72	341.54	975.8	82.994	356.54	977.85	449.24	229.54	1057	222.83	228.94	1056.6	331.29	221.18	1021.8	275.88	508.61	584.84	76.18	510.17	593.43	214.89	367.68	555.15	393.05	366.57	558.73	260.81	201.68	232.96	78.211	191.44	233.05	166.11	277.49	94.305	317.53	317.55	126.6	224.76	408.52	800.69	76.96	464.22	823.31	82.391	493.96	756.98	86.981	435.38	733.86	76.516	345.4	790.43	439.03	414.45	794.4	439.82	412.62	718.93	426.13	342.61	718.13	422.06	429.31	517.76	90.652	481.45	482.3	99.277	452.29	441.12	105.37	406.32	474.98	87.125	307.47	370.05	387.04	373.69	371.97	373.26	365.73	299.84	355.47	297.87	297.94	367.56	114.69	196.48	76.202	113.3	226.9	108.06	103.99	201.2	142.36	206.19	53.415	287.08	206.97	85.232	254.13	226.52	57.971	224.62	291.9	87.95	192.33	285.13	96.07	81.644	343.38	76.022	165.79	439.16	50.007	241.81	413.93	37.625	349.81	484.14	48.956	285.59
